<?xml version="1.0" encoding="UTF-8" standalone="no"?>
<!DOCTYPE svg PUBLIC "-//W3C//DTD SVG 1.1//EN"
 "http://www.w3.org/Graphics/SVG/1.1/DTD/svg11.dtd">
<!-- Generated by graphviz version 2.40.1 (20161225.0304)
 -->
<!-- Title: %3 Pages: 1 -->
<svg width="328pt" height="330pt"
 viewBox="0.00 0.00 327.50 330.00" xmlns="http://www.w3.org/2000/svg" xmlns:xlink="http://www.w3.org/1999/xlink">
<g id="graph0" class="graph" transform="scale(1 1) rotate(0) translate(4 326)">
<title>%3</title>
<polygon fill="#ffffff" stroke="transparent" points="-4,4 -4,-326 323.5,-326 323.5,4 -4,4"/>
<!-- Customer -->
<g id="node1" class="node">
<title>Customer</title>
<polygon fill="none" stroke="#000000" points="155,-299 56,-299 56,-248 155,-248 155,-299"/>
<polygon fill="none" stroke="#000000" points="67.5,-270.5 67.5,-291.5 144.5,-291.5 144.5,-270.5 67.5,-270.5"/>
<text text-anchor="start" x="70.5" y="-277.3" font-family="Times,serif" font-size="14.00" fill="#000000">Customer</text>
<polygon fill="#000000" stroke="transparent" points="67.5,-262.5 67.5,-268.5 144.5,-268.5 144.5,-262.5 67.5,-262.5"/>
<polygon fill="none" stroke="#000000" points="67.5,-262.5 67.5,-268.5 144.5,-268.5 144.5,-262.5 67.5,-262.5"/>
<polygon fill="#000000" stroke="transparent" points="67.5,-254.5 67.5,-260.5 144.5,-260.5 144.5,-254.5 67.5,-254.5"/>
<polygon fill="none" stroke="#000000" points="67.5,-254.5 67.5,-260.5 144.5,-260.5 144.5,-254.5 67.5,-254.5"/>
<polygon fill="none" stroke="#000000" points="64,-252 64,-295 147,-295 147,-252 64,-252"/>
</g>
<!-- User -->
<g id="node3" class="node">
<title>User</title>
<polygon fill="none" stroke="#000000" points="211,-189 0,-189 0,0 211,0 211,-189"/>
<polygon fill="none" stroke="#000000" points="11.5,-160.5 11.5,-181.5 200.5,-181.5 200.5,-160.5 11.5,-160.5"/>
<text text-anchor="start" x="88.5" y="-168.3" font-family="Times,serif" font-style="italic" font-size="14.00" fill="#000000">User</text>
<polygon fill="#000000" stroke="transparent" points="11.5,-152.5 11.5,-158.5 200.5,-158.5 200.5,-152.5 11.5,-152.5"/>
<polygon fill="none" stroke="#000000" points="11.5,-152.5 11.5,-158.5 200.5,-158.5 200.5,-152.5 11.5,-152.5"/>
<polygon fill="none" stroke="#000000" points="11.5,-129.5 11.5,-150.5 200.5,-150.5 200.5,-129.5 11.5,-129.5"/>
<text text-anchor="start" x="14.5" y="-136.3" font-family="Times,serif" font-size="14.00" fill="#000000">&#45;password:Password</text>
<polygon fill="none" stroke="#000000" points="11.5,-106.5 11.5,-127.5 200.5,-127.5 200.5,-106.5 11.5,-106.5"/>
<text text-anchor="start" x="14.5" y="-113.3" font-family="Times,serif" font-size="14.00" fill="#000000">&#45;name:Name</text>
<polygon fill="none" stroke="#000000" points="11.5,-83.5 11.5,-104.5 200.5,-104.5 200.5,-83.5 11.5,-83.5"/>
<text text-anchor="start" x="14.5" y="-90.3" font-family="Times,serif" font-size="14.00" fill="#000000">&#45;email:Email</text>
<polygon fill="#000000" stroke="transparent" points="11.5,-75.5 11.5,-81.5 200.5,-81.5 200.5,-75.5 11.5,-75.5"/>
<polygon fill="none" stroke="#000000" points="11.5,-75.5 11.5,-81.5 200.5,-81.5 200.5,-75.5 11.5,-75.5"/>
<polygon fill="none" stroke="#000000" points="11.5,-52.5 11.5,-73.5 200.5,-73.5 200.5,-52.5 11.5,-52.5"/>
<text text-anchor="start" x="14.5" y="-59.3" font-family="Times,serif" font-size="14.00" fill="#000000">+getEmail(Email)</text>
<polygon fill="none" stroke="#000000" points="11.5,-29.5 11.5,-50.5 200.5,-50.5 200.5,-29.5 11.5,-29.5"/>
<text text-anchor="start" x="14.5" y="-36.3" font-family="Times,serif" font-size="14.00" fill="#000000">+getPassword(Password)</text>
<polygon fill="none" stroke="#000000" points="11.5,-6.5 11.5,-27.5 200.5,-27.5 200.5,-6.5 11.5,-6.5"/>
<text text-anchor="start" x="14.5" y="-13.3" font-family="Times,serif" font-size="14.00" fill="#000000">+getName(Name)</text>
<polygon fill="none" stroke="#000000" points="8,-4 8,-185 203,-185 203,-4 8,-4"/>
</g>
<!-- Customer&#45;&gt;User -->
<g id="edge1" class="edge">
<title>Customer&#45;&gt;User</title>
<path fill="none" stroke="#000000" d="M105.5,-247.8537C105.5,-234.5585 105.5,-217.3408 105.5,-199.2671"/>
<polygon fill="#000000" stroke="#000000" points="109.0001,-199.1576 105.5,-189.1576 102.0001,-199.1576 109.0001,-199.1576"/>
</g>
<!-- UserRegistry -->
<g id="node2" class="node">
<title>UserRegistry</title>
<polygon fill="none" stroke="#000000" points="319.5,-322 173.5,-322 173.5,-225 319.5,-225 319.5,-322"/>
<polygon fill="none" stroke="#000000" points="184.5,-293.5 184.5,-314.5 308.5,-314.5 308.5,-293.5 184.5,-293.5"/>
<text text-anchor="start" x="198.5" y="-300.3" font-family="Times,serif" font-size="14.00" fill="#000000">UserRegistry</text>
<polygon fill="#000000" stroke="transparent" points="184.5,-285.5 184.5,-291.5 308.5,-291.5 308.5,-285.5 184.5,-285.5"/>
<polygon fill="none" stroke="#000000" points="184.5,-285.5 184.5,-291.5 308.5,-291.5 308.5,-285.5 184.5,-285.5"/>
<polygon fill="none" stroke="#000000" points="184.5,-262.5 184.5,-283.5 308.5,-283.5 308.5,-262.5 184.5,-262.5"/>
<text text-anchor="start" x="187.5" y="-269.3" font-family="Times,serif" font-size="14.00" fill="#000000">&#45;users:Set(User)</text>
<polygon fill="#000000" stroke="transparent" points="184.5,-254.5 184.5,-260.5 308.5,-260.5 308.5,-254.5 184.5,-254.5"/>
<polygon fill="none" stroke="#000000" points="184.5,-254.5 184.5,-260.5 308.5,-260.5 308.5,-254.5 184.5,-254.5"/>
<polygon fill="none" stroke="#000000" points="184.5,-231.5 184.5,-252.5 308.5,-252.5 308.5,-231.5 184.5,-231.5"/>
<text text-anchor="start" x="187.5" y="-238.3" font-family="Times,serif" font-size="14.00" fill="#000000">+register(User)</text>
<polygon fill="none" stroke="#000000" points="181.5,-229 181.5,-318 311.5,-318 311.5,-229 181.5,-229"/>
</g>
</g>
</svg>
